<?xml version="1.0" encoding="UTF-8" standalone="no"?><!DOCTYPE svg PUBLIC "-//W3C//DTD SVG 1.1//EN" "http://www.w3.org/Graphics/SVG/1.1/DTD/svg11.dtd"><svg width="100%" height="100%" viewBox="0 0 252 252" version="1.1" xmlns="http://www.w3.org/2000/svg" xmlns:xlink="http://www.w3.org/1999/xlink" xml:space="preserve" xmlns:serif="http://www.serif.com/" style="fill-rule:evenodd;clip-rule:evenodd;stroke-linejoin:round;stroke-miterlimit:1.41421;"><g><rect x="0" y="0" width="251.15" height="251.15" style="fill:#2e3133;"/><path id="Iso" d="M118.091,171.882c0,0 -25.666,0 -33.639,0c-1.493,0 -2.922,-0.603 -3.965,-1.671c-4.621,-4.736 -17.764,-18.205 -22.304,-22.858c-1.004,-1.028 -1.566,-2.409 -1.566,-3.846c0,-12.53 0,-73.792 0,-86.533c0,-1.487 0.594,-2.913 1.65,-3.96c4.646,-4.608 17.802,-17.656 22.459,-22.276c1.062,-1.054 2.5,-1.641 3.997,-1.632c10.384,0.059 52.287,0.301 62.74,0.362c1.518,0.008 2.971,0.619 4.041,1.698c7.203,7.262 35.574,35.869 42.806,43.162c1.08,1.089 1.685,2.559 1.685,4.092c0,10.991 0,56.567 0,67.58c0,1.538 -0.612,3.013 -1.702,4.099c-4.384,4.371 -16.017,15.967 -20.268,20.204c-1.013,1.011 -2.387,1.579 -3.819,1.579c-9.652,0 -47.261,0 -47.261,0l45.948,-45.516c0.124,-0.156 0.269,-0.299 0.373,-0.467c0.413,-0.664 0.454,-1.496 0.078,-2.042c-0.251,-0.364 -0.396,-0.373 -0.788,-0.56c-0.173,-0.021 -0.345,-0.042 -0.518,-0.063c-0.477,0.08 -0.617,0.053 -1.074,0.331c-0.167,0.102 -0.313,0.245 -0.469,0.368l-48.404,47.949Zm25.872,-113.785c-0.145,0.092 -0.271,0.216 -0.407,0.322l-18.099,17.928l-4.969,4.901l0.011,0.011l-30.326,30.041c-0.345,0.432 -0.628,0.906 -0.647,1.39c-0.038,1.012 0.948,1.653 1.911,1.356c0.443,-0.136 0.53,-0.257 0.902,-0.548l30.353,-30.069l25.862,25.587l0.268,-55.71l-4.859,4.791Z" style="fill:#00e0d6;"/><g id="betojaton"><path d="M31.112,214.24l3.729,0l0,-1.394c0,-0.877 -0.08,-1.516 -0.08,-1.516l0.08,0c0,0 1.847,3.389 6.386,3.389c5.342,0 9.231,-4.147 9.231,-10.578c0,-6.27 -3.448,-10.577 -8.91,-10.577c-4.779,0 -6.547,3.309 -6.547,3.309l-0.08,0c0,0 0.08,-0.718 0.08,-1.675l0,-6.589c0,-1.794 -0.761,-2.552 -2.566,-2.552l-3.852,0l0,3.309l1.646,0c0.562,0 0.883,0.28 0.883,0.88l0,23.994Zm3.809,-10.019c0,-5.152 2.812,-7.269 5.824,-7.269c3.414,0 5.784,2.836 5.784,7.229c0,4.593 -2.651,7.229 -5.864,7.229c-3.856,0 -5.744,-3.594 -5.744,-7.189Z" style="fill:#b3b3b3;fill-rule:nonzero;"/><path d="M55.351,204.14c0,5.992 4.372,10.579 10.798,10.579c4.819,0 7.826,-2.95 7.826,-2.95l-1.684,-2.756c0,0 -2.447,2.357 -5.941,2.357c-3.615,0 -6.748,-2.437 -6.989,-6.752l14.815,0c0,0 0.12,-1.076 0.12,-1.594c0,-5.232 -3.047,-9.46 -8.749,-9.46c-5.784,0 -10.196,4.148 -10.196,10.576Zm4.171,-2.352c0.602,-3.357 3.012,-5.155 5.985,-5.155c2.53,0 4.659,1.798 4.779,5.155l-10.764,0Z" style="fill:#b3b3b3;fill-rule:nonzero;"/><path d="M81.598,206.857c0,6.745 5.174,7.543 7.744,7.543c0.843,0 1.365,-0.08 1.365,-0.08l0,-3.429c0,0 -0.362,0.08 -0.924,0.08c-1.485,0 -4.296,-0.519 -4.296,-4.553l0,-9.266l4.858,0l0,-3.109l-4.858,0l0,-5.55l-3.809,0l0,5.55l-2.73,0l0,3.109l2.65,0l0,9.705Z" style="fill:#b3b3b3;fill-rule:nonzero;"/><path d="M95.198,204.101c0,6.151 4.853,10.618 10.918,10.618c6.064,0 10.958,-4.467 10.958,-10.618c0,-6.11 -4.894,-10.537 -10.958,-10.537c-6.065,0 -10.918,4.427 -10.918,10.537Zm3.97,0c0,-4.193 3.132,-7.189 6.948,-7.189c3.855,0 6.988,2.996 6.988,7.189c0,4.234 -3.133,7.269 -6.988,7.269c-3.816,0 -6.948,-3.035 -6.948,-7.269Z" style="fill:#b3b3b3;fill-rule:nonzero;"/><path d="M135.406,208.574c0,4.033 3.409,6.145 6.902,6.145c4.861,0 6.467,-3.988 6.467,-3.988l0.081,0c0,0 -0.081,0.519 -0.081,1.197c0,1.435 0.722,2.312 2.526,2.312l3.652,0l0,-3.309l-1.646,0c-0.562,0 -0.883,-0.279 -0.883,-0.879l0,-8.583c0,-4.476 -1.764,-7.905 -8.349,-7.905c-1.968,0 -7.023,0.478 -7.023,3.788l0,1.998l3.649,0l0,-1.159c0,-1.318 2.37,-1.558 3.334,-1.558c3.174,0 4.5,1.279 4.5,4.836l0,0.199l-0.884,0c-3.414,0 -12.245,0.399 -12.245,6.906Zm3.93,-0.2c0,-3.716 5.302,-3.876 8.235,-3.876l1.004,0l0,0.679c0,2.997 -2.129,6.433 -5.423,6.433c-2.571,0 -3.816,-1.598 -3.816,-3.236Z" style="fill:#b3b3b3;fill-rule:nonzero;"/><path d="M161.292,206.857c0,6.745 5.174,7.543 7.743,7.543c0.843,0 1.365,-0.08 1.365,-0.08l0,-3.429c0,0 -0.361,0.08 -0.923,0.08c-1.486,0 -4.296,-0.519 -4.296,-4.553l0,-9.266l4.858,0l0,-3.109l-4.858,0l0,-5.55l-3.809,0l0,5.55l-2.73,0l0,3.109l2.65,0l0,9.705Z" style="fill:#b3b3b3;fill-rule:nonzero;"/><path d="M174.892,204.101c0,6.151 4.853,10.618 10.918,10.618c6.064,0 10.957,-4.467 10.957,-10.618c0,-6.11 -4.893,-10.537 -10.957,-10.537c-6.065,0 -10.918,4.427 -10.918,10.537Zm3.97,0c0,-4.193 3.132,-7.189 6.948,-7.189c3.855,0 6.988,2.996 6.988,7.189c0,4.234 -3.133,7.269 -6.988,7.269c-3.816,0 -6.948,-3.035 -6.948,-7.269Z" style="fill:#b3b3b3;fill-rule:nonzero;"/><path d="M203.588,214.24l3.889,0l0,-9.46c0,-0.998 0.08,-1.917 0.361,-2.716c0.804,-2.915 3.294,-4.952 6.427,-4.952c3.254,0 3.816,2.237 3.816,5.072l0,9.505c0,1.794 0.762,2.551 2.566,2.551l3.853,0l0,-3.309l-1.647,0c-0.562,0 -0.883,-0.279 -0.883,-0.878l0,-8.747c0,-5.151 -2.165,-7.742 -6.982,-7.742c-4.418,0 -6.828,2.87 -7.631,4.626l-0.081,0c0,0 0.081,-0.519 0.081,-1.157l0,-0.758c0,-1.475 -0.842,-2.232 -2.566,-2.232l-3.733,0l0,3.308l1.646,0c0.562,0 0.884,0.28 0.884,0.879l0,16.01Z" style="fill:#b3b3b3;fill-rule:nonzero;"/><path d="M124.843,190.101l3.528,0l0,-4.027l-3.528,0l0,4.027Zm-5.177,29.031l-3.282,3.349c0,0 3.681,0 4.484,0c2.57,0 7.784,-0.797 7.784,-7.542l0,-18.329c0,-1.793 -0.762,-2.551 -2.566,-2.551l-3.853,0l0,3.309l1.646,0c0.562,0 0.884,0.279 0.884,0.879l0,16.453c0,3.953 -2.851,4.432 -4.336,4.432c-0.522,0 -0.761,0 -0.761,0Z" style="fill:#b3b3b3;fill-rule:nonzero;"/><rect x="167.7" y="230.426" width="2.655" height="2.59" style="fill:#00e0d6;fill-rule:nonzero;"/><path d="M174.889,227.812c0,3.022 2.332,5.449 5.964,5.449c3.003,0 4.644,-1.876 4.644,-1.876l-1.145,-1.796c0,0 -1.381,1.409 -3.261,1.409c-1.773,0 -3.438,-1.083 -3.438,-3.206c0,-1.879 1.362,-3.247 3.265,-3.247c0.67,0 1.578,0.245 1.578,0.817l0,0.571l2.418,0l0,-1.225c0,-1.794 -2.569,-2.345 -3.996,-2.345c-3.783,0 -6.029,2.509 -6.029,5.449Z" style="fill:#00e0d6;fill-rule:nonzero;"/><path d="M189.102,227.812c0,3.206 2.677,5.449 6.028,5.449c3.373,0 6.05,-2.243 6.05,-5.449c0,-3.186 -2.677,-5.449 -6.05,-5.449c-3.351,0 -6.028,2.263 -6.028,5.449Zm2.764,0c0,-1.919 1.492,-3.247 3.264,-3.247c1.795,0 3.286,1.328 3.286,3.247c0,1.94 -1.491,3.247 -3.286,3.247c-1.772,0 -3.264,-1.307 -3.264,-3.247Z" style="fill:#00e0d6;fill-rule:nonzero;"/><path d="M206.254,233.016l2.721,0l0,-4.571c0,-0.47 0.064,-0.898 0.173,-1.307c0.346,-1.327 1.275,-2.409 2.659,-2.409c1.319,0 1.492,0.959 1.492,2.082l0,6.205l2.742,0l0,-4.571c0,-0.49 0.043,-0.919 0.173,-1.327c0.303,-1.307 1.276,-2.389 2.638,-2.389c1.276,0 1.514,0.898 1.514,2.082l0,4.818c0,0.979 0.431,1.387 1.468,1.387l2.592,0l0,-2.182l-0.843,0c-0.303,0 -0.476,-0.163 -0.476,-0.449l0,-4.064c0,-2.734 -1.317,-3.958 -3.606,-3.958c-1.752,0 -3.179,1.02 -3.762,2.141l-0.044,0c-0.474,-1.407 -1.554,-2.141 -3.217,-2.141c-1.73,0 -3.049,1.142 -3.568,2.162l-0.043,0c0,0 0.021,-0.225 0.021,-0.449l0,-0.306c0,-0.734 -0.475,-1.162 -1.446,-1.162l-2.527,0l0,2.202l0.864,0c0.303,0 0.475,0.143 0.475,0.449l0,7.757Z" style="fill:#00e0d6;fill-rule:nonzero;"/></g></g></svg>